<?xml version="1.0" encoding="utf-8"?>
<!-- Generator: Adobe Illustrator 21.0.2, SVG Export Plug-In . SVG Version: 6.00 Build 0)  -->
<svg version="1.1" id="Layer_1" xmlns="http://www.w3.org/2000/svg" xmlns:xlink="http://www.w3.org/1999/xlink" x="0px" y="0px"
	 viewBox="0 0 167.4 167.4" style="enable-background:new 0 0 167.4 167.4;" xml:space="preserve">
<style type="text/css">
	.st0{fill:none;stroke:#0D6888;stroke-width:3;stroke-miterlimit:10;}
	.st1{fill:#515251;stroke:#000000;stroke-miterlimit:10;}
	.st2{fill:#0D6888;stroke:#000000;stroke-miterlimit:10;}
	.st3{fill:#9DCC3C;stroke:#000000;stroke-miterlimit:10;}
	.st4{fill:#FFFFFF;}
	.st5{font-family:'MyriadPro-Bold';}
	.st6{font-size:48.1043px;}
	.st7{fill:#0D6888;}
	.st8{font-family:'ErasITC-Bold';}
	.st9{font-size:26px;}
</style>
<g>
	<path class="st0" d="M148.1,160.4H18.2c-6.6,0-12-5.4-12-12V18.6c0-6.6,5.4-12,12-12h129.9c6.6,0,12,5.4,12,12v129.9
		C160.1,155,154.7,160.4,148.1,160.4z"/>
	<g>
		<path class="st1" d="M72.9,76.4c7.5,2.6-6,4.7-12.3,0c-6.3-4.7,0-21.6,0-21.6h12.3C69.9,61.1,65.4,73.8,72.9,76.4z"/>
		<path class="st2" d="M44.7,119.7c-2.8,1.1-27.8-13.3-27.9-18.7c0-5.4,28.6-46.2,28.6-46.2l15.1,8.8
			C60.6,63.5,47.5,118.6,44.7,119.7z"/>
		<path class="st3" d="M49.7,101.9c-1.9,0.7-18-8.7-18-12.3c0-3.6,18.8-30.9,18.8-30.9l9.8,5.8C60.3,64.5,51.6,101.2,49.7,101.9z"/>
		<path class="st2" d="M89.5,63.8H29c-6.6,0-12-5.4-12-12V34.7c0-6.6,5.4-12,12-12h60.5c6.6,0,12,5.4,12,12v17.1
			C101.5,58.4,96.1,63.8,89.5,63.8z"/>
		<polygon class="st2" points="128.9,48.2 101.6,54.8 101.6,32.2 128.9,38 		"/>
		<polygon class="st3" points="126.5,35.5 133.8,25.3 133.9,60.5 126.6,51.5 		"/>
		<polygon class="st3" points="134,37.8 141.2,30 141.4,57 134,50 		"/>
		<polygon class="st3" points="141.5,39.1 148.8,33.5 148.8,52.9 141.5,47.9 		"/>
		<circle class="st3" cx="35.2" cy="38.6" r="10.3"/>
		<text transform="matrix(1 0 0 1 56.7845 58.7126)" class="st4 st5 st6">#</text>
	</g>
	<text transform="matrix(1 0 0 1 18.8336 146.4111)" class="st7 st8 st9">LaiserTag</text>
</g>
</svg>
